<svg width="40" height="40" viewBox="0 0 40 40" fill="none" xmlns="http://www.w3.org/2000/svg">
<path fill-rule="evenodd" clip-rule="evenodd" d="M19.6974 11.0675C19.7026 11.0363 19.7077 11.005 19.7129 10.9738L20.3805 11.0849C23.4137 8.51673 30.2762 3.98772 38.5 11.4646C35.0838 14.6936 32.326 15.3433 29.3573 15.3433C26.5414 15.3433 24.1899 14.7907 20.5665 11.9639C18.9224 22.5423 19.963 30.214 20.6866 32.723L19.7257 33.0001C18.9529 30.3205 17.9133 22.4781 19.5862 11.7597C15.7363 14.8374 10.9676 15.0625 9.07086 14.8541C4.68446 14.3722 3.80498 13.6969 1.60148 12.0051C1.56797 11.9793 1.53415 11.9534 1.5 11.9272C4.43019 7.72919 6.21141 7 10.1697 7C15.659 7 18.5295 9.33338 19.6974 11.0675Z" fill="#528B3E"/>
<path d="M19.6974 11.0675L19.2827 11.3468L19.9857 12.3905L20.1907 11.1489L19.6974 11.0675ZM19.7129 10.9738L19.795 10.4806L19.3018 10.3985L19.2197 10.8917L19.7129 10.9738ZM20.3805 11.0849L20.2984 11.5781L20.5268 11.6161L20.7036 11.4665L20.3805 11.0849ZM38.5 11.4646L38.8435 11.828L39.2354 11.4575L38.8364 11.0947L38.5 11.4646ZM20.5665 11.9639L20.874 11.5697L20.2031 11.0463L20.0724 11.8871L20.5665 11.9639ZM20.6866 32.723L20.8251 33.2034L21.3055 33.0648L21.167 32.5844L20.6866 32.723ZM19.7257 33.0001L19.2453 33.1386L19.3839 33.6191L19.8643 33.4805L19.7257 33.0001ZM19.5862 11.7597L20.0802 11.8368L20.2786 10.5661L19.274 11.3691L19.5862 11.7597ZM9.07086 14.8541L9.12546 14.3571L9.07086 14.8541ZM1.60148 12.0051L1.90599 11.6085L1.90598 11.6085L1.60148 12.0051ZM1.5 11.9272L1.09 11.641L0.81648 12.0328L1.19557 12.3238L1.5 11.9272ZM10.1697 7L10.1697 7.5L10.1697 7ZM20.1907 11.1489C20.1958 11.1179 20.201 11.0869 20.2062 11.0559L19.2197 10.8917C19.2145 10.9232 19.2093 10.9546 19.2041 10.986L20.1907 11.1489ZM19.6309 11.467L20.2984 11.5781L20.4626 10.5917L19.795 10.4806L19.6309 11.467ZM20.7036 11.4665C22.1966 10.2023 24.5863 8.4976 27.5757 8.0011C30.5325 7.50999 34.1532 8.18841 38.1637 11.8346L38.8364 11.0947C34.6229 7.26392 30.7005 6.4684 27.4118 7.01461C24.1557 7.55543 21.5976 9.39925 20.0574 10.7033L20.7036 11.4665ZM38.1566 11.1012C36.4859 12.6803 34.997 13.6095 33.583 14.1475C32.1699 14.6853 30.8031 14.8433 29.3573 14.8433V15.8433C30.8802 15.8433 32.3767 15.6765 33.9387 15.0821C35.4998 14.4881 37.0979 13.4779 38.8435 11.828L38.1566 11.1012ZM29.3573 14.8433C27.9855 14.8433 26.7541 14.709 25.4311 14.2422C24.104 13.7738 22.6576 12.9611 20.874 11.5697L20.2589 12.3581C22.0988 13.7935 23.6399 14.6705 25.0983 15.1852C26.5609 15.7013 27.9131 15.8433 29.3573 15.8433V14.8433ZM20.0724 11.8871C18.4196 22.5215 19.4583 30.2686 20.2062 32.8615L21.167 32.5844C20.4676 30.1594 19.4251 22.5631 21.0605 12.0407L20.0724 11.8871ZM20.548 32.2425L19.5872 32.5197L19.8643 33.4805L20.8251 33.2034L20.548 32.2425ZM20.2062 32.8615C19.4576 30.2659 18.416 22.4991 20.0802 11.8368L19.0922 11.6826C17.4105 22.4571 18.4483 30.375 19.2453 33.1386L20.2062 32.8615ZM19.274 11.3691C15.5628 14.336 10.9439 14.5569 9.12546 14.3571L9.01626 15.3511C10.9913 15.5681 15.9097 15.3389 19.8984 12.1502L19.274 11.3691ZM9.12546 14.3571C6.94739 14.1178 5.68829 13.8348 4.71203 13.4227C3.73716 13.0112 3.01586 12.4607 1.90599 11.6085L1.29698 12.4017C2.3906 13.2413 3.21079 13.8744 4.32313 14.344C5.43409 14.8129 6.80793 15.1085 9.01626 15.3511L9.12546 14.3571ZM1.90598 11.6085C1.87247 11.5828 1.83862 11.5568 1.80443 11.5305L1.19557 12.3238C1.22967 12.35 1.26346 12.3759 1.29698 12.4017L1.90598 11.6085ZM1.91 12.2133C3.36216 10.1329 4.48552 8.97951 5.68731 8.32907C6.8817 7.68263 8.21392 7.5 10.1697 7.5L10.1697 6.5C8.16723 6.5 6.62967 6.68196 5.21133 7.44961C3.80038 8.21326 2.56803 9.52346 1.09 11.641L1.91 12.2133ZM10.1697 7.5C15.5022 7.5 18.2129 9.75837 19.2827 11.3468L20.1121 10.7881C18.8461 8.9084 15.8158 6.5 10.1697 6.5L10.1697 7.5Z" fill="#528B3E"/>
</svg>
