<svg width="38" height="65" viewBox="0 0 38 65" fill="none" xmlns="http://www.w3.org/2000/svg">
<g id="Tree2">
<path id="Vector 133" d="M10.6027 11.456C8.97415 11.9257 5.76968 14.5606 6.04886 21.183L28.3492 10.4464C27.6512 5.5148 27.3678 4.76306 24.911 1.945C23.6314 0.477256 18.734 -1.57758 13.5691 1.945C12.5804 2.53209 10.6027 6.66528 10.6027 11.456Z" fill="#7BAE49"/>
<path id="Vector 136" d="M37.5993 42.7071C38.4136 40.711 38.4397 32.3826 33.2086 29.0178L1.09893 35.514C-0.645966 39.3888 -0.79292 45.1118 4.26728 47.0492C6.18667 48.0473 10.5563 50.4145 17.6755 48.0191C18.6061 48.6062 25.1786 51.0056 31.9836 48.0191C33.3213 47.432 35.9468 46.7581 37.5993 42.7071Z" fill="#5F922B"/>
<path id="Vector 135" d="M33.3287 29.489C35.1105 26.4046 36.4231 17.0605 28.0476 10.1562L5.93022 21.1903C2.78941 23.1277 -0.874826 29.2922 1.21904 35.9851L33.3287 29.489Z" fill="#6BA234"/>
<path id="Union" fill-rule="evenodd" clip-rule="evenodd" d="M20.4617 15.6697L19.4852 17.1588C19.674 18.7046 19.4218 24.2746 18.9287 31.2629C18.3698 30.7592 16.9898 29.5423 13.9058 26.8378C13.744 26.7551 12.9354 26.3414 11.9651 26.3414C12.7627 26.5862 15.2437 28.1348 18.8496 32.3686C18.6448 35.1883 18.404 38.2087 18.1396 41.2683C17.5568 40.5206 15.2335 38.7697 9.29674 36.2687H7.84125C9.5 36.6728 13.7976 38.6083 17.9754 43.1394C17.2558 51.2139 16.39 59.3336 15.6039 64.5615C16.0676 64.627 16.4712 64.6976 16.8429 64.7626L16.8435 64.7627L16.8439 64.7628L16.8442 64.7628C18.3514 65.0266 19.3337 65.1985 21.6684 64.5615C21.353 62.8676 21.0584 53.376 20.8392 43.0339C24.7494 39.108 28.6077 37.3911 30.1587 37.0133H28.7033C24.4287 38.814 22.0275 40.2259 20.8004 41.1545C20.7424 38.2772 20.6904 35.367 20.6456 32.5702C24.23 28.3716 26.6957 26.8335 27.4904 26.5896C26.52 26.5896 25.7114 27.0032 25.5497 27.086C22.6368 29.6404 21.2441 30.8677 20.6275 31.4205C20.5227 24.6505 20.4617 18.6826 20.4617 15.6697Z" fill="#6C5239"/>
</g>
</svg>
