<svg width="47" height="65" viewBox="0 0 47 65" fill="none" xmlns="http://www.w3.org/2000/svg">
<g id="Tree9">
<path id="Vector 121" d="M28.5809 8.89151C28.5809 9.54852 28.9761 11.0202 30.5569 11.6509C31.0509 11.6509 32.1377 11.4933 32.5329 10.8625C32.6975 10.5997 33.0269 9.83761 33.0269 8.89151C33.0269 8.49731 32.5329 7.39354 30.5569 6.13208C29.8982 6.52628 28.5809 7.63006 28.5809 8.89151Z" fill="#C4A845"/>
<path id="Vector 120" d="M29.6602 22.2187C29.0194 23.2884 28.5836 26.0697 31.9673 28.6371C32.6081 28.958 34.1205 29.0864 35.0433 27.0325C36.0686 25.3209 37.3503 21.3201 34.2743 19.0095C33.6334 19.2235 31.8135 20.1648 29.6602 22.2187Z" fill="#DC5F5F"/>
<path id="Vector 119" d="M15.0041 26.8513C15.9881 26.9493 18.4155 27.0864 20.2523 26.8513C20.471 26.0675 20.3179 24.3235 17.9562 23.6181C17.3002 23.3242 15.4633 22.9715 13.364 23.912C13.2547 24.4999 13.4296 25.9107 15.0041 26.8513Z" fill="#BE4E4E"/>
<path id="Vector 118" d="M31.858 31.9397C31.3023 32.5705 30.5242 34.2737 31.858 36.04C32.1915 36.1451 33.0585 36.2923 33.8587 36.04C34.081 36.04 35.1925 34.7784 35.526 33.5167C35.6371 32.8859 35.5927 31.3089 34.5256 30.0472C34.081 30.1524 32.9251 30.6781 31.858 31.9397Z" fill="#C19F5C"/>
<path id="Vector 117" d="M41.5796 32.399C40.8459 32.7855 39.3784 34.0224 39.3784 35.8776C39.3784 36.2641 40.1331 36.9791 43.1518 36.7472C44.4096 36.4573 46.7995 35.1819 46.2964 32.399C45.5626 32.0125 43.5921 31.4714 41.5796 32.399Z" fill="#BCA977"/>
<path id="Vector 116" d="M4.26254 26.7182C4.93436 27.0266 6.54672 28.1367 7.62162 30.1102C7.28571 30.6241 4.93436 31.0353 1.91119 30.1102C0.90346 29.4935 -0.574534 27.2733 0.231645 25.7932C0.903461 25.6904 2.65018 25.7315 4.26254 26.7182Z" fill="#BD8C52"/>
<path id="Vector 115" d="M1.56832 22.2559C2.32061 23.0134 4.40553 24.5283 6.72688 24.5283C8.01651 23.7708 10.0799 21.1521 8.01651 16.737C7.58663 15.8713 6.21102 14.01 4.1476 13.4906C3.28784 13.8152 1.43936 14.919 0.923504 16.737C0.601094 18.0356 0.278685 20.9573 1.56832 22.2559Z" fill="#D79D47"/>
<path id="Vector 114" d="M38.1082 21.4622C38.1082 22.2197 38.2435 24.384 38.7847 26.9811C39.4612 26.9811 41.1525 26.9811 42.5055 26.6565C43.4899 26.4202 45.888 25.6825 46.9028 22.4361C47.1283 21.354 47.1058 18.5405 45.2115 15.9434C43.0692 16.7009 38.1082 18.8651 38.1082 21.4622Z" fill="#BA7848"/>
<path id="Vector 113" d="M14.5591 15.9434C15.2906 15.9434 17.0043 15.8847 18.0075 15.6499C18.2165 15.552 18.6972 15.239 18.948 14.7694C19.157 14.1824 19.1988 12.4801 17.694 10.367C16.7535 9.77997 13.6187 9.48649 10.7972 10.367C11.1107 12.2258 12.302 15.9434 14.5591 15.9434Z" fill="#C07373"/>
<path id="Vector 112" d="M34.436 6.94969C33.998 7.58561 33.2797 9.18449 33.9104 10.4927C34.1732 10.6744 34.9091 11.0377 35.7501 11.0377C36.1881 10.9469 37.1167 10.5472 37.3269 9.67506C37.5897 8.85745 37.5897 7.22223 36.5385 6.13208C36.0129 6.13208 34.7503 6.49339 34.436 6.94969Z" fill="#BC7777"/>
<path id="Vector 111" d="M19.8414 9.4695C20.4512 9.97106 21.6097 10.6131 22.5854 10.3723C22.9919 10.1717 23.5 9.46952 23.5 8.86765C23.5 8.86765 23.2807 7.44737 22.5854 6.76107C21.9756 6.15923 19.8414 5.85827 19.2316 6.46016C18.9746 6.6631 18.8658 8.26576 19.8414 9.4695Z" fill="#B18181"/>
<path id="Vector 110" d="M22.9157 7.6208C23.1327 8.50781 24.0875 10.5479 26.1706 11.6123C27.364 11.7602 29.7748 11.5473 30.4019 9.83831C30.7274 8.95131 31.3241 7.1773 31.0529 4.95979C30.9444 4.07279 30.467 1.50047 28.1235 0.0812618C27.147 -0.36225 25.4545 1.05697 23.8922 3.18578C23.4582 3.92495 22.6553 5.8468 22.9157 7.6208Z" fill="#C87539"/>
<path id="Vector" fill-rule="evenodd" clip-rule="evenodd" d="M27.147 7.11423C27.1781 6.94401 27.0634 6.78111 26.8908 6.75039C26.7182 6.71967 26.5531 6.83276 26.5219 7.00299C26.1545 9.01142 25.8173 10.9671 25.5088 12.8703C24.568 11.083 23.7288 9.97624 23.0473 9.31912C22.6829 8.96772 22.3604 8.74182 22.0882 8.61026C21.8197 8.48041 21.5852 8.43545 21.4047 8.47106C21.3187 8.48802 21.2629 8.57051 21.2801 8.65532C21.2973 8.74013 21.3809 8.79513 21.4669 8.77817C21.5511 8.76157 21.7109 8.77664 21.9484 8.89149C22.1824 9.0046 22.4779 9.20805 22.8253 9.54307C23.5202 10.2132 24.4106 11.3974 25.4221 13.3926L25.424 13.3962C24.9427 16.4009 24.5326 19.2735 24.1863 22.0148C21.8076 19.0376 19.2155 16.6727 17.0393 14.9812C16.8245 13.9587 16.7808 13.1716 16.815 12.5999C16.8517 11.9873 16.9772 11.6314 17.0691 11.4955C17.0983 11.4523 17.0865 11.394 17.0427 11.3652C16.9989 11.3364 16.9397 11.3481 16.9106 11.3912C16.7908 11.5685 16.6622 11.9643 16.6248 12.5888C16.5919 13.1379 16.629 13.871 16.8092 14.8036C15.1676 13.5462 13.7825 12.6841 12.9354 12.2444C12.8579 12.2041 12.7618 12.2335 12.721 12.31C12.6801 12.3866 12.7099 12.4813 12.7875 12.5216C14.7744 13.5529 19.8351 16.988 24.1312 22.4538C23.8163 24.9831 23.5558 27.3995 23.3436 29.7038C20.5103 26.9513 17.9906 26.1158 17.0074 26.008C16.9202 25.9984 16.8417 26.0604 16.832 26.1463C16.8224 26.2323 16.8852 26.3098 16.9723 26.3193C17.8819 26.4189 20.3905 27.2334 23.2289 30.0327C23.2519 30.0554 23.2801 30.0696 23.3097 30.0755C23.2999 30.1838 23.2903 30.2917 23.2807 30.3994C22.6622 33.8662 22.2093 37.0668 21.8919 40.005C17.9561 35.1786 14.8849 31.7179 12.6168 29.332C10.3183 26.9139 8.83115 25.5852 8.09989 25.0621C7.57989 23.517 7.37945 22.2654 7.34364 21.3189C7.30442 20.2822 7.46297 19.6232 7.60485 19.3433C7.64407 19.266 7.61228 19.1719 7.53385 19.1332C7.45541 19.0946 7.36004 19.1259 7.32082 19.2033C7.14515 19.5498 6.98612 20.2688 7.02629 21.3306C7.06009 22.224 7.23514 23.3685 7.6668 24.7544C7.1111 24.3218 6.43257 23.6294 5.84898 22.8801C5.50617 22.4399 5.20285 21.9886 4.98028 21.5698C4.75465 21.1453 4.62538 20.7788 4.6038 20.5021C4.59035 20.3296 4.43768 20.2005 4.26281 20.2138C4.08794 20.2271 3.95709 20.3776 3.97054 20.5501C4.00188 20.952 4.17696 21.4076 4.41775 21.8607C4.66161 22.3195 4.98681 22.8013 5.34529 23.2616C6.05813 24.1769 6.92943 25.0409 7.60425 25.4847C8.20545 25.8799 9.69163 27.1706 12.1534 29.7604C12.5513 30.1789 12.9743 30.631 13.4227 31.1182C11.8839 31.484 10.0806 31.2803 8.40789 30.851C6.61201 30.3901 4.98895 29.675 4.04672 29.1587C3.97006 29.1167 3.87339 29.1439 3.8308 29.2196C3.78821 29.2952 3.81583 29.3905 3.89249 29.4325C4.85566 29.9603 6.50354 30.6859 8.32792 31.1541C10.0786 31.6034 12.0124 31.8212 13.6636 31.3807C15.8053 33.7203 18.5057 36.8358 21.7995 40.8921C20.3427 55.3786 22.2282 63.2573 23.6588 65.0001H25.2466V64.3811C25.2475 64.3435 25.2415 64.3051 25.2278 64.2676C25.2273 64.2663 25.2268 64.2649 25.2263 64.2636C24.1302 58.2886 23.5117 52.5182 23.2087 47.3752C23.2037 47.007 23.2002 46.6332 23.1983 46.2537L23.1978 46.157C23.2116 46.1481 23.2247 46.138 23.2372 46.1268C27.2957 42.488 30.6946 39.8083 33.3327 37.9079C37.6272 37.8707 41.4167 36.2168 42.796 35.3797C42.8707 35.3344 42.894 35.2379 42.848 35.1643C42.8021 35.0906 42.7043 35.0677 42.6296 35.113C41.3359 35.8981 37.82 37.4417 33.7846 37.5847C36.3457 35.7658 38.1331 34.7229 39.044 34.2737C39.2009 34.1963 39.2644 34.0082 39.186 33.8535C39.1076 33.6988 38.9168 33.6361 38.76 33.7134C37.5592 34.3056 34.9521 35.8581 31.1495 38.7394C32.2012 36.8381 32.8413 35.5184 33.2134 34.6329C33.4199 34.1414 33.5453 33.7804 33.6123 33.526C33.6458 33.3991 33.6658 33.2948 33.6733 33.212C33.68 33.1378 33.6799 33.0521 33.6453 32.9839C33.6062 32.9066 33.5108 32.8753 33.4323 32.9139C33.3562 32.9514 33.324 33.0411 33.358 33.1171L33.3581 33.1194C33.3587 33.1256 33.3605 33.1449 33.3569 33.1843C33.3516 33.2434 33.336 33.3294 33.305 33.4472C33.2431 33.6821 33.1237 34.0284 32.92 34.513C32.5142 35.4787 31.7795 36.9807 30.5176 39.222C28.4075 40.8465 25.9564 42.8594 23.1968 45.3176C23.2016 42.8161 23.2749 40.0815 23.4353 37.1116C23.4615 37.1035 23.4871 37.092 23.5113 37.0768C30.1167 32.9426 34.4512 30.3101 37.3842 28.6594C40.328 27.0026 41.8278 26.3542 42.7782 26.1569C42.9242 26.1266 43.0255 26.0019 43.0302 25.8611C43.7823 25.4418 45.1422 24.4553 45.7236 22.4483C45.7476 22.3652 45.6988 22.2785 45.6145 22.2547C45.5302 22.2309 45.4423 22.2791 45.4182 22.3622C44.8696 24.2558 43.5917 25.1871 42.8808 25.5847C42.8137 25.5434 42.7309 25.5266 42.6474 25.544C41.86 25.7074 40.7864 26.1343 39.0846 27.0192C40.5125 25.1001 41.343 23.5051 41.7982 22.2709C42.289 20.9396 42.349 20.0112 42.2317 19.5485C42.2104 19.4646 42.1242 19.4136 42.0392 19.4346C41.954 19.4556 41.9023 19.5406 41.9236 19.6245C42.018 19.997 41.9828 20.8538 41.4997 22.1638C41.0193 23.4668 40.1018 25.2016 38.4583 27.3213C38.4482 27.3342 38.4406 27.3482 38.4352 27.3627C38.0154 27.5883 37.5615 27.8384 37.0694 28.1153C35.3331 29.0925 33.1114 30.4102 30.2282 32.1734C32.3598 28.687 33.3092 26.6451 33.7193 25.252C34.0595 24.0963 34.0278 23.3814 33.9971 22.6882C33.9884 22.4909 33.9797 22.2954 33.9797 22.0921C33.9797 22.0056 33.9086 21.9355 33.8209 21.9355C33.7332 21.9355 33.6621 22.0056 33.6621 22.0921C33.6621 22.3112 33.6711 22.5159 33.68 22.7183C33.71 23.4035 33.7389 24.0623 33.4144 25.1647C32.9962 26.5851 31.9904 28.7325 29.6318 32.5386C27.8383 33.6388 25.7998 34.9035 23.4777 36.356C23.8093 30.6626 24.4586 24.1265 25.5522 16.7329C31.0222 12.5771 34.6627 10.3147 35.8023 9.70166C35.8793 9.66025 35.9077 9.56513 35.8657 9.4892C35.8237 9.41327 35.7273 9.3853 35.6503 9.42671C35.5448 9.48345 35.4187 9.55382 35.2725 9.63799L35.8167 8.02791C35.8333 7.97868 35.8063 7.92547 35.7564 7.90907C35.7065 7.89266 35.6526 7.91926 35.6359 7.96849L35.0223 9.784C34.0903 10.3345 32.5435 11.3158 30.4691 12.7587C30.683 11.5167 30.7279 10.6267 30.6927 10.013C30.6739 9.68467 30.6321 9.43367 30.5803 9.24933C30.5293 9.06845 30.4656 8.94098 30.3951 8.87135C30.3578 8.83466 30.2975 8.83466 30.2603 8.87135C30.2231 8.90805 30.2231 8.96754 30.2603 9.00424C30.2955 9.03901 30.3484 9.12817 30.3966 9.29963C30.444 9.46764 30.4842 9.7047 30.5025 10.0236C30.5383 10.6489 30.4891 11.5819 30.2485 12.9124C28.9089 13.8486 27.3581 14.971 25.6185 16.2876C26.0561 13.3631 26.563 10.3056 27.147 7.11423Z" fill="#571D1D"/>
<path id="Vector_2" d="M25.5054 12.9443L25.4213 12.9875C25.4401 13.0234 25.4801 13.0432 25.5205 13.0368C25.5609 13.0303 25.5926 12.999 25.5991 12.9591L25.5054 12.9443ZM25.4192 13.4649L25.3343 13.5068L25.3349 13.5079L25.4192 13.4649ZM25.4211 13.4685L25.5147 13.4831C25.5179 13.4634 25.5146 13.4433 25.5054 13.4255L25.4211 13.4685ZM24.1889 22.0593L24.1145 22.1173C24.1381 22.1469 24.1776 22.1597 24.2144 22.1496C24.2512 22.1394 24.2783 22.1083 24.283 22.0709L24.1889 22.0593ZM17.0743 15.0484L16.9814 15.0673C16.9859 15.0889 16.998 15.1083 17.0155 15.1219L17.0743 15.0484ZM16.8452 14.8714L16.787 14.9453C16.8182 14.9692 16.8611 14.9716 16.8948 14.9513C16.9284 14.9309 16.9458 14.8921 16.9384 14.8539L16.8452 14.8714ZM24.1341 22.497L24.2282 22.5084C24.2313 22.4838 24.2244 22.4591 24.209 22.4396L24.1341 22.497ZM23.3501 29.7236L23.2835 29.7903C23.3097 29.8158 23.3482 29.824 23.3827 29.8115C23.4171 29.7991 23.4412 29.7681 23.4445 29.7321L23.3501 29.7236ZM23.3163 30.0942L23.4108 30.1025C23.4151 30.0549 23.3824 30.0118 23.335 30.0024L23.3163 30.0942ZM23.2875 30.417L23.3812 30.4333L23.3819 30.4252L23.2875 30.417ZM21.905 39.9917L21.8311 40.0504C21.8551 40.0799 21.8949 40.0922 21.9317 40.0816C21.9685 40.0709 21.9952 40.0394 21.9993 40.0016L21.905 39.9917ZM8.17534 25.0969L8.08532 25.1264C8.09158 25.145 8.10358 25.1612 8.11965 25.1727L8.17534 25.0969ZM7.74421 24.7902L7.68545 24.8637C7.71802 24.8891 7.76353 24.8906 7.79778 24.8675C7.83203 24.8443 7.84705 24.8019 7.83486 24.7627L7.74421 24.7902ZM13.474 31.1334L13.4962 31.2245C13.5288 31.2167 13.5548 31.1926 13.5646 31.161C13.5745 31.1294 13.5667 31.095 13.5442 31.0705L13.474 31.1334ZM13.7139 31.3951L13.7843 31.3324C13.7603 31.3062 13.7236 31.2955 13.6891 31.3047L13.7139 31.3951ZM21.8129 40.876L21.9072 40.8852C21.9097 40.8609 21.9024 40.8365 21.8869 40.8174L21.8129 40.876ZM23.6638 64.9064L23.5901 64.9654C23.6081 64.9873 23.6351 65.0001 23.6638 65.0001V64.9064ZM25.2444 64.9064V65.0001C25.2968 65.0001 25.3393 64.9582 25.3393 64.9064H25.2444ZM25.2444 64.2894L25.1496 64.2872V64.2894H25.2444ZM25.2243 64.1723L25.1309 64.1889C25.1319 64.194 25.1332 64.1991 25.135 64.2039L25.2243 64.1723ZM23.2158 47.3382L23.1209 47.3395L23.1211 47.3437L23.2158 47.3382ZM23.205 46.1239L23.1529 46.0456C23.1261 46.0631 23.11 46.0927 23.1101 46.1243L23.205 46.1239ZM33.294 37.9014L33.2932 37.8077C33.2733 37.8079 33.254 37.8142 33.238 37.8257L33.294 37.9014ZM33.7438 37.5792L33.6884 37.5032C33.6545 37.5273 33.6405 37.5705 33.6541 37.6095C33.6677 37.6485 33.7055 37.6743 33.7472 37.6728L33.7438 37.5792ZM31.1207 38.7302L31.0374 38.6853C31.0159 38.7242 31.0249 38.7726 31.059 38.8013C31.093 38.8301 31.1429 38.8314 31.1784 38.8045L31.1207 38.7302ZM33.3192 33.126L33.4136 33.1347C33.4151 33.1188 33.4125 33.1028 33.4059 33.0881L33.3192 33.126ZM33.3192 33.126L33.2247 33.1177C33.2241 33.1232 33.2241 33.1287 33.2246 33.1342L33.3192 33.126ZM33.3192 33.1282L33.2248 33.136L33.2248 33.1368L33.3192 33.1282ZM30.4916 39.2112L30.5499 39.2851C30.56 39.2774 30.5683 39.2677 30.5745 39.2568L30.4916 39.2112ZM23.2039 45.2872L23.1091 45.2871C23.109 45.3241 23.1311 45.3577 23.1654 45.3728C23.1996 45.3879 23.2397 45.3816 23.2676 45.3568L23.2039 45.2872ZM23.4414 37.1076L23.4132 37.0182C23.3753 37.0298 23.3487 37.0635 23.3466 37.1026L23.4414 37.1076ZM42.9476 25.8933L42.9009 25.8118C42.8722 25.8278 42.8539 25.8576 42.8528 25.8902L42.9476 25.8933ZM42.7989 25.6178L42.7487 25.6972C42.7781 25.7154 42.8154 25.7162 42.8456 25.6992L42.7989 25.6178ZM39.0199 27.0476L38.9434 26.9922C38.9172 27.0274 38.9192 27.0757 38.948 27.1088C38.9769 27.1418 39.025 27.1508 39.0641 27.1305L39.0199 27.0476ZM38.3734 27.3901L38.4188 27.4723C38.439 27.4614 38.4546 27.4436 38.4625 27.4223L38.3734 27.3901ZM30.2035 32.1853L30.1223 32.1369C30.0997 32.1739 30.1057 32.2215 30.1369 32.2519C30.168 32.2823 30.2163 32.2877 30.2535 32.2648L30.2035 32.1853ZM33.9553 22.7306H33.8604L33.8606 22.7347L33.9553 22.7306ZM33.9553 22.7306L34.0503 22.7305L34.0501 22.7264L33.9553 22.7306ZM29.6098 32.5494L29.6599 32.6289C29.6725 32.6212 29.683 32.6107 29.6907 32.5982L29.6098 32.5494ZM23.4836 36.3545L23.3889 36.3491C23.3869 36.3842 23.4049 36.4174 23.4355 36.4352C23.4661 36.453 23.5043 36.4524 23.5344 36.4336L23.4836 36.3545ZM25.5487 16.7945L25.4908 16.7203C25.4713 16.7351 25.4584 16.7569 25.4549 16.7809L25.5487 16.7945ZM35.225 9.72236L35.135 9.69275C35.1225 9.72973 35.1346 9.77049 35.1652 9.79507C35.1958 9.81965 35.2387 9.8229 35.2728 9.80325L35.225 9.72236ZM34.9759 9.8679L35.0247 9.94825C35.0441 9.93675 35.0588 9.91875 35.0659 9.89751L34.9759 9.8679ZM30.4433 12.833L30.3498 12.8173C30.3434 12.8546 30.3604 12.8921 30.3927 12.9122C30.4252 12.9324 30.4667 12.9313 30.498 12.9095L30.4433 12.833ZM30.2237 12.9863L30.2786 13.0627C30.2989 13.0485 30.3128 13.0269 30.3171 13.0027L30.2237 12.9863ZM25.6147 16.3506L25.5209 16.337C25.5152 16.3747 25.5333 16.412 25.5666 16.4314C25.5999 16.4507 25.6417 16.4482 25.6724 16.4249L25.6147 16.3506ZM26.8644 6.93622C26.9847 6.95765 27.0646 7.07131 27.0428 7.19008L27.2295 7.22335C27.2698 7.00277 27.1214 6.79169 26.898 6.75188L26.8644 6.93622ZM26.6073 7.11247C26.629 6.9937 26.7441 6.91479 26.8644 6.93622L26.898 6.75188C26.6747 6.71208 26.461 6.85863 26.4206 7.07921L26.6073 7.11247ZM25.5991 12.9591C25.9062 11.0626 26.2416 9.11383 26.6073 7.11247L26.4206 7.07921C26.0547 9.08178 25.7191 11.0318 25.4118 12.9295L25.5991 12.9591ZM22.9888 9.47149C23.6577 10.1173 24.4876 11.2113 25.4213 12.9875L25.5896 12.9012C24.6502 11.1141 23.8093 10.0018 23.1214 9.33755L22.9888 9.47149ZM22.0586 8.78203C22.3182 8.90766 22.6311 9.12611 22.9888 9.47149L23.1214 9.33755C22.7535 8.98237 22.4244 8.7505 22.1421 8.61384L22.0586 8.78203ZM21.4385 8.65102C21.5893 8.62122 21.8005 8.65708 22.0586 8.78203L22.1421 8.61384C21.8655 8.47993 21.6098 8.42617 21.4013 8.46734L21.4385 8.65102ZM21.3889 8.72449C21.382 8.69068 21.4042 8.65778 21.4385 8.65102L21.4013 8.46734C21.2643 8.49439 21.1755 8.62597 21.2029 8.76122L21.3889 8.72449ZM21.4633 8.77347C21.4291 8.78023 21.3957 8.7583 21.3889 8.72449L21.2029 8.76122C21.2303 8.89648 21.3635 8.9842 21.5004 8.95715L21.4633 8.77347ZM22.003 8.89416C21.7572 8.77518 21.5758 8.75125 21.4633 8.77347L21.5004 8.95715C21.5555 8.94628 21.6923 8.95238 21.9194 9.06235L22.003 8.89416ZM22.9004 9.56078C22.5494 9.22194 22.2473 9.01243 22.003 8.89416L21.9194 9.06235C22.141 9.16959 22.427 9.36567 22.7678 9.69472L22.9004 9.56078ZM25.504 13.423C24.4943 11.4287 23.6023 10.2385 22.9004 9.56078L22.7678 9.69472C23.4495 10.3529 24.3302 11.5235 25.3343 13.5068L25.504 13.423ZM25.5054 13.4255L25.5035 13.422L25.3349 13.5079L25.3368 13.5114L25.5054 13.4255ZM24.283 22.0709C24.6277 19.3395 25.0357 16.4771 25.5147 13.4831L25.3274 13.4539C24.8481 16.4499 24.4398 19.3142 24.0948 22.0477L24.283 22.0709ZM17.0155 15.1219C19.1772 16.8044 21.752 19.1565 24.1145 22.1173L24.2634 22.0013C21.89 19.027 19.304 16.6646 17.1329 14.9748L17.0155 15.1219ZM16.7564 12.6692C16.7217 13.2486 16.7662 14.0415 16.9814 15.0673L17.1671 15.0294C16.9547 14.0169 16.9122 13.2407 16.9457 12.6803L16.7564 12.6692ZM17.0251 11.5219C16.9197 11.678 16.7932 12.0527 16.7564 12.6692L16.9457 12.6803C16.9819 12.0757 17.1053 11.7408 17.1829 11.6258L17.0251 11.5219ZM17.0251 11.5219L17.1829 11.6258C17.241 11.5398 17.2175 11.4235 17.1303 11.3661L17.0251 11.5219ZM17.0251 11.5219L17.1303 11.3661C17.0431 11.3087 16.9254 11.332 16.8673 11.418L17.0251 11.5219ZM16.7564 12.6692C16.7932 12.0527 16.9197 11.678 17.0251 11.5219L16.8673 11.418C16.7341 11.6153 16.6046 12.0297 16.567 12.6582L16.7564 12.6692ZM16.9384 14.8539C16.7602 13.9307 16.7242 13.2077 16.7564 12.6692L16.567 12.6582C16.5337 13.2143 16.5714 13.9529 16.7521 14.889L16.9384 14.8539ZM12.9448 12.4033C13.7819 12.8384 15.1562 13.6945 16.787 14.9453L16.9034 14.7974C15.266 13.5416 13.8824 12.6789 13.0332 12.2375L12.9448 12.4033ZM12.8594 12.4294C12.8757 12.3989 12.9139 12.3872 12.9448 12.4033L13.0332 12.2375C12.9096 12.1733 12.7566 12.2201 12.6916 12.3422L12.8594 12.4294ZM12.8859 12.5137C12.8551 12.4977 12.8432 12.4599 12.8594 12.4294L12.6916 12.3422C12.6265 12.4642 12.674 12.6153 12.7976 12.6795L12.8859 12.5137ZM24.209 22.4396C19.9235 16.9801 14.8749 13.5476 12.8859 12.5137L12.7976 12.6795C14.7644 13.7018 19.7914 17.1174 24.0591 22.5543L24.209 22.4396ZM23.4445 29.7321C23.6556 27.4362 23.9149 25.0286 24.2282 22.5084L24.04 22.4856C23.7264 25.0077 23.4669 27.4173 23.2556 29.7151L23.4445 29.7321ZM17.032 26.1328C17.9853 26.2374 20.4748 27.0582 23.2835 29.7903L23.4166 29.6569C20.5844 26.9019 18.0572 26.0569 17.053 25.9467L17.032 26.1328ZM16.9622 26.188C16.9661 26.1537 16.9974 26.129 17.032 26.1328L17.053 25.9467C16.9142 25.9314 16.7891 26.0302 16.7737 26.1673L16.9622 26.188ZM17.0181 26.2569C16.9834 26.2531 16.9584 26.2223 16.9622 26.188L16.7737 26.1673C16.7583 26.3044 16.8583 26.4279 16.9971 26.4431L17.0181 26.2569ZM23.303 29.9853C20.4656 27.1834 17.9493 26.3591 17.0181 26.2569L16.9971 26.4431C17.8768 26.5396 20.3551 27.3391 23.1689 30.1178L23.303 29.9853ZM23.335 30.0024C23.3233 30 23.3122 29.9945 23.303 29.9853L23.1689 30.1178C23.2053 30.1538 23.2504 30.1766 23.2976 30.186L23.335 30.0024ZM23.3819 30.4252C23.3914 30.3179 23.4011 30.2103 23.4108 30.1025L23.2218 30.0859C23.2121 30.1938 23.2025 30.3015 23.1929 30.4089L23.3819 30.4252ZM21.9993 40.0016C22.3149 37.0751 22.7659 33.887 23.3812 30.4333L23.194 30.4008C22.578 33.8584 22.1268 37.0509 21.8107 39.9818L21.9993 40.0016ZM12.6026 29.4171C14.8584 31.7933 17.9142 35.241 21.8311 40.0504L21.9789 39.933C18.0597 35.1207 15.0008 31.6694 12.741 29.289L12.6026 29.4171ZM8.11965 25.1727C8.83981 25.6885 10.315 27.0074 12.6026 29.4171L12.741 29.289C10.4523 26.8781 8.96677 25.5481 8.23101 25.0211L8.11965 25.1727ZM7.32774 21.3692C7.36376 22.3225 7.56518 23.5789 8.08532 25.1264L8.26535 25.0674C7.75021 23.5347 7.55256 22.2959 7.51728 21.3622L7.32774 21.3692ZM7.59772 19.3546C7.44638 19.6535 7.28841 20.3284 7.32774 21.3692L7.51728 21.3622C7.47852 20.3364 7.63621 19.6974 7.76737 19.4384L7.59772 19.3546ZM7.56944 19.2709C7.60068 19.2863 7.61333 19.3238 7.59772 19.3546L7.76737 19.4384C7.82983 19.315 7.77919 19.165 7.65427 19.1033L7.56944 19.2709ZM7.48461 19.2988C7.50023 19.2679 7.53821 19.2554 7.56944 19.2709L7.65427 19.1033C7.52934 19.0416 7.37743 19.0917 7.31496 19.215L7.48461 19.2988ZM7.20137 21.3739C7.16167 20.323 7.31983 19.6243 7.48461 19.2988L7.31496 19.215C7.13 19.5803 6.97155 20.315 7.01182 21.3808L7.20137 21.3739ZM7.83486 24.7627C7.40733 23.3881 7.23468 22.2555 7.20137 21.3739L7.01182 21.3808C7.04581 22.2804 7.22167 23.4292 7.65355 24.8177L7.83486 24.7627ZM5.8594 22.9789C6.44395 23.7304 7.12477 24.4267 7.68545 24.8637L7.80296 24.7167C7.25728 24.2914 6.58717 23.607 6.00983 22.8648L5.8594 22.9789ZM4.98585 21.6594C5.21059 22.0827 5.5158 22.5371 5.8594 22.9789L6.00983 22.8648C5.67091 22.429 5.37223 21.9838 5.15385 21.5724L4.98585 21.6594ZM4.60051 20.5587C4.62345 20.8532 4.75898 21.2319 4.98585 21.6594L5.15385 21.5724C4.93148 21.1534 4.80965 20.8014 4.78963 20.5443L4.60051 20.5587ZM4.3629 20.3576C4.48475 20.3483 4.59114 20.4384 4.60051 20.5587L4.78963 20.5443C4.77222 20.3208 4.57466 20.1536 4.34835 20.1708L4.3629 20.3576ZM4.15923 20.5922C4.14986 20.4718 4.24104 20.3668 4.3629 20.3576L4.34835 20.1708C4.12205 20.188 3.9527 20.3831 3.97011 20.6066L4.15923 20.5922ZM4.59385 21.8623C4.35642 21.4149 4.18898 20.9741 4.15923 20.5922L3.97011 20.6066C4.00277 21.0259 4.18388 21.4933 4.42585 21.9492L4.59385 21.8623ZM5.50841 23.2451C5.15389 22.7893 4.83343 22.3136 4.59385 21.8623L4.42585 21.9492C4.67179 22.4125 4.99879 22.8974 5.35799 23.3592L5.50841 23.2451ZM7.73455 25.4401C7.07464 25.0057 6.21457 24.153 5.50841 23.2451L5.35799 23.3592C6.07104 24.2759 6.94572 25.1459 7.62934 25.596L7.73455 25.4401ZM12.2798 29.716C9.82926 27.1347 8.34316 25.8408 7.73455 25.4401L7.62934 25.596C8.21768 25.9833 9.69047 27.2624 12.1414 29.8441L12.2798 29.716ZM13.5442 31.0705C13.0976 30.5846 12.6762 30.1336 12.2798 29.716L12.1414 29.8441C12.5371 30.2609 12.9578 30.7112 13.4038 31.1965L13.5442 31.0705ZM8.45806 30.9578C10.1297 31.3874 11.9426 31.5944 13.4962 31.2245L13.4518 31.0424C11.942 31.4019 10.1645 31.2028 8.50583 30.7765L8.45806 30.9578ZM4.09445 29.2622C5.03867 29.7802 6.6618 30.4961 8.45806 30.9578L8.50583 30.7765C6.72659 30.3193 5.11829 29.6096 4.18656 29.0985L4.09445 29.2622ZM4.00847 29.2865C4.02543 29.2563 4.06392 29.2455 4.09445 29.2622L4.18656 29.0985C4.06446 29.0315 3.91049 29.0749 3.84266 29.1955L4.00847 29.2865ZM4.03304 29.3713C4.00251 29.3546 3.99151 29.3166 4.00847 29.2865L3.84266 29.1955C3.77483 29.3161 3.81882 29.4681 3.94092 29.5351L4.03304 29.3713ZM8.42622 31.0786C6.6186 30.6141 4.98559 29.8939 4.03304 29.3713L3.94092 29.5351C4.90598 30.0646 6.55381 30.791 8.37844 31.2599L8.42622 31.0786ZM13.6891 31.3047C12.0687 31.7375 10.1625 31.5248 8.42622 31.0786L8.37844 31.2599C10.1276 31.7094 12.0717 31.9308 13.7386 31.4855L13.6891 31.3047ZM21.8869 40.8174C18.607 36.773 15.9177 33.666 13.7843 31.3324L13.6435 31.4579C15.774 33.7884 18.4609 36.8925 21.7389 40.9345L21.8869 40.8174ZM23.7375 64.8475C23.3937 64.4281 23.0136 63.6262 22.661 62.4233C22.3092 61.2233 21.9872 59.6328 21.7547 57.6439C21.2897 53.6663 21.1827 48.0998 21.9072 40.8852L21.7185 40.8667C20.9929 48.092 21.0994 53.6721 21.5663 57.6654C21.7997 59.662 22.1234 61.2631 22.4787 62.4754C22.8333 63.6849 23.2218 64.5162 23.5901 64.9654L23.7375 64.8475ZM25.2444 64.8128H23.6638V65.0001H25.2444V64.8128ZM25.1496 64.2894V64.9064H25.3393V64.2894H25.1496ZM25.1365 64.208C25.1461 64.2343 25.1502 64.2611 25.1496 64.2872L25.3392 64.2917C25.3404 64.2428 25.3326 64.193 25.315 64.1446L25.1365 64.208ZM25.135 64.2039L25.1352 64.2046C25.1352 64.2046 25.1354 64.2051 25.1354 64.2052L25.1357 64.2058C25.1357 64.2058 25.1359 64.2064 25.1359 64.2064L25.1361 64.2071L25.1365 64.208L25.315 64.1446C25.315 64.1446 25.3147 64.144 25.3147 64.144C25.3147 64.144 25.3146 64.1434 25.3146 64.1434C25.3146 64.1433 25.3143 64.1427 25.3143 64.1427C25.3143 64.1427 25.3141 64.1422 25.3141 64.1421C25.3141 64.1421 25.3139 64.1415 25.3139 64.1415C25.3139 64.1415 25.3139 64.1414 25.3139 64.1415C25.3139 64.1415 25.3136 64.1409 25.3136 64.1409L25.135 64.2039ZM23.1211 47.3437C23.4229 52.4733 24.039 58.229 25.1309 64.1889L25.3176 64.1555C24.2273 58.2041 23.6119 52.456 23.3104 47.3328L23.1211 47.3437ZM23.1106 46.2207C23.1125 46.5993 23.1159 46.9722 23.1209 47.3395L23.3106 47.337C23.3056 46.9702 23.3021 46.5978 23.3002 46.2198L23.1106 46.2207ZM23.1101 46.1243L23.1106 46.2207L23.3002 46.2198L23.2998 46.1235L23.1101 46.1243ZM23.1804 46.0245C23.1716 46.0324 23.1624 46.0395 23.1529 46.0456L23.2571 46.2022C23.2748 46.1906 23.2918 46.1776 23.308 46.1632L23.1804 46.0245ZM33.238 37.8257C30.609 39.7222 27.2228 42.3954 23.1804 46.0245L23.308 46.1632C27.3458 42.5382 30.7267 39.8692 33.3499 37.977L33.238 37.8257ZM42.6647 35.3016C41.3029 36.1292 37.5473 37.7709 33.2932 37.8077L33.2948 37.995C37.5908 37.9578 41.3798 36.3023 42.7641 35.4611L42.6647 35.3016ZM42.6854 35.2156C42.7037 35.2451 42.6944 35.2835 42.6647 35.3016L42.7641 35.4611C42.8831 35.3888 42.9201 35.2349 42.847 35.1175L42.6854 35.2156ZM42.5984 35.1952C42.6282 35.1771 42.6671 35.1863 42.6854 35.2156L42.847 35.1175C42.7738 35 42.618 34.9634 42.4991 35.0357L42.5984 35.1952ZM33.7472 37.6728C37.7837 37.5296 41.2995 35.9846 42.5984 35.1952L42.4991 35.0357C41.2224 35.8116 37.7381 37.3438 33.7404 37.4856L33.7472 37.6728ZM38.937 34.1951C38.0241 34.6458 36.2403 35.6885 33.6884 37.5032L33.7992 37.6552C36.3465 35.8438 38.1212 34.8073 39.0218 34.3626L38.937 34.1951ZM39.036 33.9019C39.0906 34.0098 39.0463 34.1411 38.937 34.1951L39.0218 34.3626C39.2248 34.2624 39.3071 34.0186 39.2056 33.8181L39.036 33.9019ZM38.7391 33.8042C38.8484 33.7502 38.9813 33.7939 39.036 33.9019L39.2056 33.8181C39.1041 33.6177 38.8572 33.5364 38.6542 33.6367L38.7391 33.8042ZM31.1784 38.8045C34.9611 35.9345 37.5511 34.3908 38.7391 33.8042L38.6542 33.6367C37.4515 34.2305 34.8509 35.7818 31.0629 38.6559L31.1784 38.8045ZM33.0876 34.6011C32.7189 35.4796 32.0834 36.7917 31.0374 38.6853L31.2039 38.7751C32.2517 36.8782 32.8906 35.5596 33.2628 34.6728L33.0876 34.6011ZM33.4806 33.51C33.4153 33.7578 33.2923 34.1132 33.0876 34.6011L33.2628 34.6728C33.4693 34.1808 33.5958 33.8165 33.6641 33.5571L33.4806 33.51ZM33.5385 33.2123C33.5317 33.2877 33.5131 33.3862 33.4806 33.51L33.6641 33.5571C33.6981 33.4279 33.7194 33.3185 33.7275 33.2289L33.5385 33.2123ZM33.5203 33.0351C33.5421 33.078 33.545 33.1405 33.5385 33.2123L33.7275 33.2289C33.7343 33.1528 33.7371 33.0444 33.69 32.9513L33.5203 33.0351ZM33.4356 33.0072C33.4668 32.9918 33.5047 33.0043 33.5203 33.0351L33.69 32.9513C33.6276 32.828 33.4756 32.778 33.3507 32.8397L33.4356 33.0072ZM33.4059 33.0881C33.3924 33.0579 33.4053 33.0221 33.4356 33.0072L33.3507 32.8397C33.2295 32.8995 33.1782 33.0426 33.2323 33.1637L33.4059 33.0881ZM33.4137 33.1205L33.4136 33.1187L33.2246 33.1342L33.2248 33.136L33.4137 33.1205ZM33.4126 33.2011C33.4166 33.1556 33.4147 33.1306 33.4137 33.1196L33.2248 33.1368C33.2249 33.1382 33.2266 33.1518 33.2236 33.1846L33.4126 33.2011ZM33.3582 33.4786C33.3898 33.3584 33.4066 33.2673 33.4126 33.2011L33.2236 33.1846C33.2189 33.2365 33.2048 33.3168 33.1746 33.4314L33.3582 33.4786ZM32.9707 34.5532C33.1743 34.0682 33.295 33.7186 33.3582 33.4786L33.1746 33.4314C33.1145 33.6598 32.9973 34.0005 32.7955 34.4816L32.9707 34.5532ZM30.5745 39.2568C31.8316 37.021 32.5649 35.5203 32.9707 34.5532L32.7955 34.4816C32.3935 35.4395 31.664 36.9333 30.4087 39.1658L30.5745 39.2568ZM23.2676 45.3568C26.0129 42.9079 28.4512 40.9029 30.5499 39.2851L30.4333 39.1374C28.3307 40.7581 25.889 42.766 23.1404 45.2177L23.2676 45.3568ZM23.3466 37.1026C23.1868 40.0645 23.1138 42.792 23.1091 45.2871L23.2988 45.2874C23.3035 42.7957 23.3764 40.0715 23.5361 37.1126L23.3466 37.1026ZM23.4662 36.9938C23.4492 37.0045 23.4314 37.0126 23.4132 37.0182L23.4695 37.197C23.5035 37.1866 23.5366 37.1716 23.5679 37.152L23.4662 36.9938ZM37.2801 28.6012C34.3583 30.2478 30.0417 32.873 23.4662 36.9938L23.5679 37.152C30.1433 33.0311 34.4565 30.4081 37.3742 28.7639L37.2801 28.6012ZM42.6772 26.0965C41.7146 26.2966 40.2095 26.9504 37.2801 28.6012L37.3742 28.7639C40.3057 27.1119 41.7867 26.4731 42.7162 26.2798L42.6772 26.0965ZM42.8528 25.8902C42.8495 25.9884 42.7788 26.0754 42.6772 26.0965L42.7162 26.2798C42.9053 26.2405 43.0362 26.0788 43.0424 25.8965L42.8528 25.8902ZM45.5376 22.4657C44.968 24.4342 43.637 25.4008 42.9009 25.8118L42.9942 25.9749C43.7556 25.5498 45.1319 24.5497 45.7199 22.5172L45.5376 22.4657ZM45.4941 22.3886C45.5277 22.398 45.5471 22.4326 45.5376 22.4657L45.7199 22.5172C45.7583 22.3846 45.6805 22.2463 45.5462 22.2084L45.4941 22.3886ZM45.4159 22.4315C45.4255 22.3983 45.4606 22.3791 45.4941 22.3886L45.5462 22.2084C45.4119 22.1705 45.272 22.2473 45.2336 22.38L45.4159 22.4315ZM42.8456 25.6992C43.566 25.2958 44.8607 24.3507 45.4159 22.4315L45.2336 22.38C44.6967 24.2355 43.4471 25.1471 42.7521 25.5363L42.8456 25.6992ZM42.586 25.6688C42.6442 25.6567 42.7018 25.6684 42.7487 25.6972L42.849 25.5383C42.7623 25.4849 42.655 25.4631 42.5469 25.4856L42.586 25.6688ZM39.0641 27.1305C40.7567 26.2492 41.8158 25.829 42.586 25.6688L42.5469 25.4856C41.7496 25.6513 40.6711 26.082 38.9757 26.9648L39.0641 27.1305ZM41.632 22.2826C41.1826 23.5031 40.3604 25.0852 38.9434 26.9922L39.0964 27.103C40.522 25.1844 41.3536 23.5867 41.8102 22.3466L41.632 22.2826ZM42.0606 19.6238C42.1706 20.0579 42.1182 20.962 41.632 22.2826L41.8102 22.3466C42.3012 21.0132 42.3682 20.0665 42.2447 19.5783L42.0606 19.6238ZM41.984 19.5783C42.0178 19.5699 42.0522 19.5903 42.0606 19.6238L42.2447 19.5783C42.2108 19.4445 42.0735 19.3631 41.938 19.3966L41.984 19.5783ZM41.938 19.654C41.9295 19.6206 41.9501 19.5867 41.984 19.5783L41.938 19.3966C41.8025 19.4301 41.7201 19.5656 41.7539 19.6994L41.938 19.654ZM41.5131 22.24C41.9963 20.9278 42.0388 20.0523 41.938 19.654L41.7539 19.6994C41.8411 20.0438 41.8134 20.8764 41.3349 22.1759L41.5131 22.24ZM38.4717 27.4057C40.1125 25.2868 41.031 23.5493 41.5131 22.24L41.3349 22.1759C40.8606 23.4641 39.9524 25.1851 38.321 27.2919L38.4717 27.4057ZM38.4625 27.4223C38.4645 27.4166 38.4676 27.411 38.4717 27.4057L38.321 27.2919C38.3052 27.3124 38.2929 27.3347 38.2843 27.3579L38.4625 27.4223ZM37.0607 28.2216C37.5501 27.9459 38.0015 27.6969 38.4188 27.4723L38.328 27.3079C37.9094 27.533 37.457 27.7827 36.9667 28.0589L37.0607 28.2216ZM30.2535 32.2648C33.1232 30.5076 35.3337 29.1949 37.0607 28.2216L36.9667 28.0589C35.2368 29.0338 33.0241 30.3479 30.1536 32.1057L30.2535 32.2648ZM33.5877 25.2601C33.1831 26.6367 32.2432 28.6635 30.1223 32.1369L30.2847 32.2336C32.4078 28.7567 33.3582 26.713 33.7699 25.3124L33.5877 25.2601ZM33.8606 22.7347C33.891 23.422 33.9221 24.1227 33.5877 25.2601L33.7699 25.3124C34.1129 24.1458 34.0808 23.421 34.0501 22.7264L33.8606 22.7347ZM33.8432 22.1364C33.8432 22.3415 33.8519 22.5384 33.8606 22.7347L34.0501 22.7264C34.0414 22.5296 34.0328 22.3367 34.0328 22.1364H33.8432ZM33.7799 22.0739C33.8148 22.0739 33.8432 22.1019 33.8432 22.1364H34.0328C34.0328 21.9985 33.9196 21.8866 33.7799 21.8866V22.0739ZM33.7167 22.1364C33.7167 22.1019 33.745 22.0739 33.7799 22.0739V21.8866C33.6403 21.8866 33.527 21.9985 33.527 22.1364H33.7167ZM33.7344 22.7566C33.7256 22.5547 33.7167 22.3525 33.7167 22.1364H33.527C33.527 22.3572 33.5361 22.5631 33.5449 22.7647L33.7344 22.7566ZM33.4663 25.2253C33.7937 24.1119 33.7645 23.4434 33.7344 22.7566L33.5449 22.7647C33.5746 23.4439 33.603 24.0886 33.2842 25.1731L33.4663 25.2253ZM29.6907 32.5982C32.0395 28.8029 33.0464 26.6536 33.4663 25.2253L33.2842 25.1731C32.8716 26.5764 31.8758 28.7081 29.5289 32.5005L29.6907 32.5982ZM23.5344 36.4336C25.8458 34.9859 27.8748 33.7253 29.6599 32.6289L29.5597 32.4698C27.774 33.5666 25.7445 34.8275 23.4328 36.2753L23.5344 36.4336ZM25.4549 16.7809C24.3658 24.1533 23.7192 30.6712 23.3889 36.3491L23.5782 36.3598C23.9082 30.6876 24.5542 24.1752 25.6426 16.808L25.4549 16.7809ZM35.707 9.70361C34.5664 10.318 30.9379 12.5764 25.4908 16.7203L25.6066 16.8687C31.0499 12.7277 34.6695 10.4758 35.7978 9.86806L35.707 9.70361ZM35.7322 9.6189C35.7489 9.64917 35.7377 9.6871 35.707 9.70361L35.7978 9.86806C35.9205 9.802 35.9656 9.6503 35.8988 9.5292L35.7322 9.6189ZM35.6464 9.59398C35.6771 9.57747 35.7155 9.58862 35.7322 9.6189L35.8988 9.5292C35.8319 9.40811 35.6782 9.36349 35.5556 9.42954L35.6464 9.59398ZM35.2728 9.80325C35.4177 9.71968 35.5424 9.65 35.6464 9.59398L35.5556 9.42954C35.4496 9.48663 35.3233 9.55723 35.1772 9.64148L35.2728 9.80325ZM35.6767 8.08785L35.135 9.69275L35.3149 9.75198L35.8567 8.14708L35.6767 8.08785ZM35.6767 8.08785L35.8567 8.14708C35.8898 8.04894 35.8361 7.94286 35.7367 7.91014L35.6767 8.08785ZM35.6767 8.08785L35.7367 7.91014C35.6373 7.87743 35.5299 7.93047 35.4968 8.02861L35.6767 8.08785ZM35.0659 9.89751L35.6767 8.08785L35.4968 8.02861L34.886 9.83829L35.0659 9.89751ZM30.498 12.9095C32.5615 11.4723 34.0994 10.4955 35.0247 9.94825L34.9272 9.78755C33.9969 10.3378 32.455 11.3172 30.3887 12.7565L30.498 12.9095ZM30.5712 10.1015C30.6057 10.7042 30.562 11.584 30.3498 12.8173L30.5368 12.8487C30.7506 11.606 30.7961 10.7115 30.7606 10.0909L30.5712 10.1015ZM30.4625 9.36002C30.512 9.53563 30.5528 9.77888 30.5712 10.1015L30.7606 10.0909C30.7416 9.75891 30.6993 9.50176 30.6453 9.30989L30.4625 9.36002ZM30.3025 9.02442C30.3552 9.07646 30.4132 9.18445 30.4625 9.36002L30.6453 9.30989C30.5933 9.12486 30.5245 8.97873 30.4366 8.89197L30.3025 9.02442ZM30.3025 9.02442L30.4366 8.89197C30.3626 8.81882 30.2425 8.81882 30.1684 8.89197L30.3025 9.02442ZM30.3025 9.02442L30.1684 8.89197C30.0943 8.96512 30.0943 9.08372 30.1684 9.15687L30.3025 9.02442ZM30.4625 9.36002C30.4132 9.18445 30.3552 9.07646 30.3025 9.02442L30.1684 9.15687C30.1859 9.17415 30.233 9.24391 30.2798 9.41015L30.4625 9.36002ZM30.5712 10.1015C30.5528 9.77888 30.512 9.53563 30.4625 9.36002L30.2798 9.41015C30.3246 9.5695 30.364 9.79884 30.3819 10.112L30.5712 10.1015ZM30.3171 13.0027C30.5574 11.6717 30.6074 10.7341 30.5712 10.1015L30.3819 10.112C30.417 10.7259 30.369 11.6484 30.1304 12.9699L30.3171 13.0027ZM25.6724 16.4249C27.4032 15.1132 28.946 13.9952 30.2786 13.0627L30.1689 12.9099C28.8343 13.8437 27.2896 14.9633 25.5569 16.2763L25.6724 16.4249ZM27.0428 7.19008C26.4614 10.3721 25.9566 13.4208 25.5209 16.337L25.7085 16.3643C26.144 13.4501 26.6484 10.4035 27.2295 7.22335L27.0428 7.19008Z" fill="#571D1D"/>
</g>
</svg>
