<svg width="47" height="65" viewBox="0 0 47 65" fill="none" xmlns="http://www.w3.org/2000/svg">
<g id="Tree7">
<path id="Vector 64" d="M28.6883 33.7037H20.1429C21.6689 43.9352 20.1429 55.9723 15.2598 60.7871H21.0585L23.8052 65L26.8572 60.7871H32.9611C28.3831 55.6713 26.552 47.8473 28.6883 33.7037Z" fill="#64441F"/>
<path id="Vector 62" d="M30.6523 3.17519C27.2952 0.165931 19.116 -3.385 13.2562 6.48537C9.67598 5.50476 2.77073 5.7512 3.1473 14.3094C1.63382 15.8141 -0.477536 19.6659 3.18481 23.0363C-0.0706033 27.0486 -3.65156 36.277 8.06792 41.0919C11.2216 44.8033 19.8484 49.9993 29.1264 41.0919C31.9748 42.5965 38.5264 43.3187 41.9445 34.1706C45.9121 30.8604 49.5744 21.8326 41.9445 14.9113C43.4705 9.09339 44.0809 0.466854 30.6523 3.17519Z" fill="#569F5E"/>
<path id="Vector 58" d="M31.2963 3.21001C27.7188 0.167751 19.0027 -3.42211 12.7584 6.55648C7.70169 14.4538 11.8579 19.6732 14.5682 21.2958C26.2763 27.6237 30.2874 18.6592 30.8295 13.3859C34.7322 11.4389 34.0817 4.86761 31.2963 3.21001Z" fill="#3F8320"/>
<path id="Vector 59" d="M13.2563 5.88363C9.67605 4.90303 2.77079 5.14946 3.14736 13.7077C4.29186 19.5935 9.86803 19.8612 12.5131 19.2594C23.9884 18.2964 24.2122 11.0341 22.8897 7.52326C19.4715 1.26401 15.0432 3.82215 13.2563 5.88363Z" fill="#336B57"/>
<path id="Vector 56" d="M42.3016 34.9484C46.4882 31.4532 50.3526 21.508 42.3016 14.1998C27.5045 6.68794 23.8052 16.2488 23.8052 21.9683C23.8052 35.6949 36.1362 36.4788 42.3016 34.9484Z" fill="#34702A"/>
<path id="Vector 60" d="M3.06418 13.5789C1.20228 15.2294 -1.39515 19.4547 3.11033 23.1519C11.9905 31.1928 17.7148 25.0605 19.467 20.9892C24.3479 11.7464 13.9603 8.77544 11.2069 9.76575C4.72965 7.38901 3.07956 11.3175 3.06418 13.5789Z" fill="#236B22"/>
<path id="Vector 57" d="M42.5749 14.4842C44.8637 9.32864 43.6429 0.601815 31.5095 2.91282C27.1924 2.91282 23.6036 2.91282 23.6036 12.8371C22.4157 16.675 23.6036 22.0349 30.0141 22.4952C33.2605 24.671 40.3175 26.4588 42.5749 14.4842Z" fill="#298037"/>
<path id="Vector 61" d="M13.4286 5.71752C9.76983 4.75281 2.68223 5.1611 3.06706 13.5806C4.23665 19.371 9.93506 19.6344 12.6381 19.0423C24.365 18.095 24.5937 10.9503 23.2422 7.49642C19.7491 1.33862 15.2546 3.68946 13.4286 5.71752Z" fill="#2F7D2D"/>
<path id="Vector 54" d="M7.93509 40.9431C11.2922 45.4398 20.7533 49.775 29.2987 40.9431C33.5167 36.5838 39.9362 26.3386 29.8131 20.2328C27.1683 18.8629 20.8181 17.8844 16.5757 24.9296C11.6886 26.0059 2.83536 30.7155 7.93509 40.9431Z" fill="#32752C"/>
<path id="Vector 55" d="M29.2427 41.2069C32.2367 42.7369 39.1232 43.4713 42.7161 34.1687C42.8834 30.3946 41.2291 23.4247 33.2734 25.7378C27.606 27.3698 18.8655 32.7485 29.2427 41.2069Z" fill="#2D7A35"/>
<path id="Vector 63" d="M18.2746 14.1777C15.1441 15.3309 9.79184 19.0787 13.4273 24.8446C15.6086 28.3042 27.6663 34.0701 33.7254 25.9978C35.9471 22.0578 38.5121 13.8317 30.9988 12.4479C29.0801 10.9103 23.849 9.10369 18.2746 14.1777Z" fill="#2D7621"/>
<path id="Vector 53" d="M3.10398 23.1313C-0.0688114 27.111 -3.55888 36.2644 7.86316 41.0401C11.0359 42.035 17.6195 42.1743 18.5713 34.772C20.2569 31.7872 22.0217 24.9819 15.5968 21.6389C13.6138 19.5496 8.33907 16.9229 3.10398 23.1313Z" fill="#247123"/>
</g>
</svg>
