<svg width="63" height="65" viewBox="0 0 63 65" fill="none" xmlns="http://www.w3.org/2000/svg">
<g id="Tree3">
<path id="Vector 131" d="M21.8502 45.5645C21.1558 44.3804 20.6641 41.795 10.9038 36.1112L20.9575 36.9797C21.8502 38.7559 23.9927 42.3082 25.421 42.3082C25.8178 42.1109 27.2064 41.8346 29.587 42.3082C31.8684 42.6042 40.1965 41.5528 42.1009 39.4214L43.6153 39.1205L45.1298 39.4214C43.3443 41.2962 34.7647 46.1566 30.4797 44.9725C28.9919 44.7751 26.0162 44.7949 26.0162 46.4526C27.4048 51.5838 29.7655 62.4382 28.0992 64.8064C24.4291 65.1024 16.97 65.28 16.4939 63.6223C17.6842 61.3527 20.4218 54.5638 21.8502 45.5645Z" fill="#654116"/>
<path id="Vector 122" d="M16.8729 4.80329C13.412 5.78474 6.34541 9.85776 5.76591 18.2982C3.75378 22.1423 1.3714 30.8608 7.93902 34.9829C10.917 36.864 21.2674 40.0374 38.8455 37.6819C43.5941 37.9273 53.9607 37.2402 57.4376 32.5293C58.9669 30.4028 61.3975 23.6962 58.8864 13.8817C56.8742 9.21981 50.532 0.877471 41.26 4.80329C35.8675 3.90362 23.4405 2.64409 16.8729 4.80329Z" fill="#A3B76B"/>
<path id="Vector 123" d="M28.1147 17.1414C26.6951 17.3852 24.0925 18.8476 25.0389 22.7475C26.0642 24.5349 28.9665 27.8173 32.3735 26.6474C33.6354 27.1348 36.7743 27.6223 39.235 25.6724C39.8659 25.9161 41.6483 26.0136 43.7304 24.4537C44.4402 24.5349 45.9544 24.1124 46.333 21.7725C50.1186 17.8726 48.4624 13.729 44.4402 12.5103C43.0206 9.58541 38.1466 10.8041 36.6323 13.729C31.9003 10.3166 28.1147 13.8265 28.1147 17.1414Z" fill="#8EAF63"/>
<path id="Vector 124" d="M5.21332 18.1581C3.38363 19.1953 -0.202569 22.5145 0.0901813 27.4932C-0.362818 31.0917 0.822027 34.5531 5.21332 33.7751C7.28697 35.7199 11.9466 37.4507 16.9233 30.6049C19.8508 31.7718 26.2182 32.083 28.2674 23.9925C29.4872 21.5291 30.2435 16.1355 23.5102 14.2684C22.4124 12.7126 19.4849 7.26711 12.1661 9.60089C9.84853 9.73055 5.21332 11.6235 5.21332 18.1581Z" fill="#66A64F"/>
<path id="Vector 128" d="M43.6463 22.4504C44.8197 24.0795 48.5746 27.2724 54.2069 27.0117C55.8203 28.7494 61.6873 27.0118 60.8073 23.102C63.0074 21.2558 65.4715 16.4556 57.7271 12.0246C59.0472 9.41813 59.3992 3.74907 50.2467 1.92455C47.4598 0.838526 41.3582 0.16519 39.246 6.16005C37.4859 7.13747 31.3256 9.74394 33.9657 16.2601C34.1124 18.3235 36.2539 22.4504 43.6463 22.4504Z" fill="#66A64F"/>
<path id="Vector 125" d="M30.3113 2.9701C24.7829 0.060923 21.2649 -1.02999 15.7365 1.15187C14.2744 1.45414 10.2081 1.51553 9.43756 4.4247C6.69007 6.60658 8.1977 9.1521 9.20284 9.87939C9.55823 10.1365 7.69512 12.0613 10.0795 12.7886C11.2133 14.2431 13.0945 14.2431 14.2288 14.2431C16.7417 14.8492 23.1747 15.6977 28.8036 14.2431C30.9814 14.3644 36.2417 14.025 39.8603 11.6976C40.8655 10.7279 42.2727 8.13389 39.8603 5.51564C39.8603 4.06106 36.3423 1.15187 30.3113 2.9701Z" fill="#5FAD3A"/>
<path id="Vector 126" d="M26.962 21.2789C24.3486 19.3007 22.6855 18.5589 20.0721 20.0425C19.3809 20.2481 17.4586 20.2898 17.0944 22.2681C15.7956 23.7518 16.5083 25.4827 16.9834 25.9773C17.1514 26.1521 16.2707 27.4609 17.3978 27.9555C17.9338 28.9446 18.8231 28.9446 19.3593 28.9446C20.5472 29.3567 23.5883 29.9337 26.2492 28.9446C27.2787 29.027 29.7654 28.7962 31.476 27.2137C31.9512 26.5542 32.6164 24.7903 31.476 23.0099C31.476 22.0208 29.813 20.0425 26.962 21.2789Z" fill="#52A051"/>
<path id="Vector 130" d="M25.6184 15.7351C20.6992 18.5314 18.8545 20.3108 22.5439 23.107C23.055 23.8466 23.1589 25.9033 28.0781 26.293C31.7675 27.6827 36.0718 26.9202 37.3016 26.4118C37.7364 26.232 40.991 27.1744 42.2208 25.9683C44.6804 25.3949 44.6804 24.4434 44.6804 23.8696C45.7053 22.5986 47.14 19.3448 44.6804 16.4977C44.8854 15.3962 44.3115 12.7355 40.3761 10.9052C38.7364 10.3968 34.3501 9.68507 29.9228 10.9052C27.4632 10.9052 22.5439 12.6847 25.6184 15.7351Z" fill="#54A02F"/>
<path id="Vector 127" d="M36.4199 37.9715C42.6128 42.0443 46.5538 43.5716 52.7467 40.517C54.3847 40.0938 57.4318 40.4849 58.295 36.412C60.3685 35.8102 61.1983 31.4117 60.0723 30.3935C59.6742 30.0335 61.8496 26.1806 59.0838 24.2257C57.8137 22.1892 55.7064 22.1892 54.4357 22.1892C51.6207 21.3407 44.4144 20.1528 38.1088 22.1892C35.6692 22.0195 29.7765 22.4947 25.7229 25.753C24.5969 27.1106 23.0206 30.7422 25.7229 34.4077C25.7229 36.4442 29.6639 40.517 36.4199 37.9715Z" fill="#52A051"/>
<path id="Vector 129" d="M11.9763 28.9092C9.9379 29.1891 6.20081 30.8682 7.55975 35.3458C9.03194 37.398 13.1994 41.1667 18.0915 39.8234C19.9035 40.3831 24.4106 40.9428 27.9439 38.704C28.8498 38.9839 31.4092 39.0958 34.3988 37.3048C35.4181 37.398 37.5924 36.913 38.1359 34.2264C43.5717 29.7488 41.1936 24.9913 35.4181 23.592C33.3796 20.2338 26.3811 21.633 24.2068 24.9913C17.4121 21.0733 11.9763 25.1032 11.9763 28.9092Z" fill="#30912E"/>
</g>
</svg>
