<svg width="38" height="65" viewBox="0 0 38 65" fill="none" xmlns="http://www.w3.org/2000/svg">
<path d="M13.2665 2.01703C12.2743 2.62587 10.2897 6.91214 10.2897 11.8803L33.2312 30.5321C35.0192 27.3335 36.3795 17.9443 27.9747 10.7843C27.2743 5.67005 27.1133 4.93947 24.6479 2.01703C23.3638 0.494932 18.4494 -1.63601 13.2665 2.01703Z" fill="#428929"/>
<path d="M10.5035 11.4352C8.86923 11.9223 5.67077 14.6133 5.95093 21.481C2.79917 23.4902 -0.877844 29.8831 1.22333 36.8238L37.5272 44.2361C38.3444 42.166 38.6943 33.5764 33.4449 30.0871L10.5035 11.4352Z" fill="#2A8328"/>
<path d="M32.0951 49.6813C33.4375 49.0725 35.8689 48.4372 37.5272 44.2362L1.10276 36.713C-0.648219 40.7314 -0.795685 46.6663 4.28216 48.6754C6.20824 49.7105 10.5931 52.1654 17.7371 49.6813C18.671 50.2901 25.2664 52.7784 32.0951 49.6813Z" fill="#24742C"/>
<path fill-rule="evenodd" clip-rule="evenodd" d="M20.5331 13.8425L19.5531 15.3868C19.7427 16.9898 19.4895 22.7662 18.9947 30.0133C18.4338 29.4909 17.0491 28.229 13.9543 25.4243C13.792 25.3385 12.9805 24.9095 12.0068 24.9095C12.8072 25.1634 15.2969 26.7694 18.9153 31.1599C18.7098 34.0841 18.4682 37.2163 18.2029 40.3893C17.618 39.6139 15.2865 37.7982 9.32915 35.2046H7.86859C9.53313 35.6236 13.8457 37.6308 18.0381 42.3297C17.316 50.7033 16.4472 59.1236 15.6583 64.5452C16.1238 64.6131 16.529 64.6863 16.9021 64.7538L16.9025 64.7539L16.9028 64.7539L16.9029 64.754C18.4154 65.0275 19.4012 65.2057 21.744 64.5452C21.4275 62.7886 21.1318 52.9453 20.9119 42.2202C24.8357 38.1489 28.7075 36.3685 30.2639 35.9767H28.8034C24.5139 37.8441 22.1043 39.3083 20.8729 40.2712C20.8147 37.2874 20.7626 34.2694 20.7176 31.3691C24.3145 27.015 26.7888 25.4199 27.5862 25.167C26.6125 25.167 25.8011 25.5959 25.6388 25.6817C22.7157 28.3308 21.3182 29.6036 20.6995 30.1768C20.5942 23.156 20.5331 16.9671 20.5331 13.8425Z" fill="#623A31"/>
</svg>
