<svg width="30" height="66" viewBox="0 0 30 66" fill="none" xmlns="http://www.w3.org/2000/svg">
<path fill-rule="evenodd" clip-rule="evenodd" d="M4.05084 59.5868C3.95244 59.788 3.85068 59.9961 3.75 60.2318C2.87967 61.4668 1.57297 62.3038 0.754248 62.8281C0.303006 63.1172 0 63.3112 0 63.4247C2.76 64.3186 8.85 61.5897 9.3 61.3493C9.15 61.4818 6.75 64.7273 7.05 64.8614L7.35 64.7273L7.65 64.5727L11.85 61.9879L13.2 65.0364L13.5 65.5C13.8 65.5 15.8258 62.3756 16.1037 61.7276C16.1399 61.6433 16.1712 61.5703 16.2 61.509C18.12 64.1909 21.15 65.3454 21.3 65.1807L20.7 61.3493C23.46 63.7759 29.55 65.0364 30 64.8614C29.85 64.5727 25.95 61.0182 25.8 60.0722C25.5 59.3181 25.8 52.0901 26.1 50.9727H4.2C4.37112 52.2702 4.63599 53.3436 4.70499 54.2414L2.7 52.2498L1.95 52.4094C2.76719 52.8443 4.12026 55.2972 4.77405 56.7806C4.70628 58.2463 4.39956 58.8736 4.05084 59.5868Z" fill="#734024"/>
<ellipse cx="15.1501" cy="50.9727" rx="10.95" ry="2.47274" fill="#B1886A"/>
</svg>
