<svg width="34" height="65" viewBox="0 0 34 65" fill="none" xmlns="http://www.w3.org/2000/svg">
<g id="Tree4">
<path id="Vector 21" d="M21.5289 49.7391H13.768C14.1376 52.7536 14.0637 57.8783 9.33325 62.1739H13.768L17.0941 65L20.0506 62.1739H24.1158C22.0216 60.3841 18.868 55.8435 21.5289 49.7391Z" fill="#6D432C"/>
<path id="Vector 22" d="M17.2746 48.7117C12.4115 53.1963 7.14309 50.5802 5.11679 48.7117C1.22628 44.2271 1.8747 38.4345 2.68522 36.0988C-2.17791 29.3719 0.658918 23.0188 2.68522 20.683C-0.232655 8.35045 6.33257 5.2673 9.97991 5.2673C11.9252 -1.45956 17.2746 -0.338419 19.7062 1.06301C28.4598 1.06301 30.6482 5.73444 30.6482 8.07016C33.5661 12.5547 31.864 18.3473 30.6482 20.683C35.5113 29.6522 32.6745 33.7631 30.6482 34.6973C36.4839 42.5454 31.4587 46.3759 28.2166 47.3102C25.2987 54.0371 19.7062 51.0474 17.2746 48.7117Z" fill="#62954A"/>
<g id="Vector 23" filter="url(#filter0_b_546_868)">
<path d="M20.116 14.9299C19.2582 12.6067 16.1454 9.70273 10.5573 16.6722C8.8416 15.2203 4.16026 13.8845 2.10146 20.157C0.385786 21.0282 -2.08968 31.7438 3.20439 36.274C3.93967 39.178 13.1308 41.0655 15.7043 34.9672C20.116 36.4192 27.91 35.6642 25.263 24.513C28.2042 26.6909 32.3217 22.1608 31.1453 19.7214C32.3708 17.6887 34.0129 12.4906 30.7776 7.96038C29.3071 7.08919 25.8512 6.47935 25.263 11.0095C23.915 10.7191 20.9983 11.0966 20.116 14.9299Z" fill="#63833B"/>
</g>
<path id="Vector 24" d="M24.8619 24.7626C21.6478 24.3309 15.2937 25.5398 15.5904 33.8297C13.118 28.6485 6.09991 22.1727 1.94626 37.0254C-1.39147 45.6607 9.68328 58.3163 16.3152 49.6701C16.3151 51.994 25.526 53.4061 26.9997 49.0954C29.9666 49.0954 38.213 42.206 30.7958 34.2615C33.0209 34.6932 36.7295 29.6848 30.7957 20.0132C28.8178 19.4375 24.8619 19.5814 24.8619 24.7626Z" fill="#4C742D"/>
</g>
<defs>
<filter id="filter0_b_546_868" x="-4" y="3.34778" width="40.6667" height="39.6522" filterUnits="userSpaceOnUse" color-interpolation-filters="sRGB">
<feFlood flood-opacity="0" result="BackgroundImageFix"/>
<feGaussianBlur in="BackgroundImageFix" stdDeviation="2"/>
<feComposite in2="SourceAlpha" operator="in" result="effect1_backgroundBlur_546_868"/>
<feBlend mode="normal" in="SourceGraphic" in2="effect1_backgroundBlur_546_868" result="shape"/>
</filter>
</defs>
</svg>
