<svg width="40" height="65" viewBox="0 0 40 65" fill="none" xmlns="http://www.w3.org/2000/svg">
<g id="Tree6">
<path id="Vector 52" d="M24.4776 39.7223H16.7164C18.01 41.5278 18.8723 63.1945 16.7164 65.0001H24.4776C22.3217 63.1945 23.1841 41.5278 24.4776 39.7223Z" fill="#4D2F2F"/>
<path id="Vector 44" d="M9.16211 18.1415C10.6926 17.9204 14.3183 13.0692 20.2985 0.601807C28.6567 15.0463 26.8657 12.9828 31.9403 18.1415H27.4627C27.5622 19.4025 29.6716 23.2314 34.9254 28.459C35.7214 28.459 33.6716 28.8029 29.8507 28.8029C29.8507 29.6053 34.3284 32.9299 38.209 37.7447C37.9104 38.0886 35.8209 38.4325 32.8358 38.0886C32.5373 39.4642 35.4627 42.697 40 47.3743L39.9616 47.3915C38.1614 48.1983 34.8301 49.6914 29.8507 46.6865C28.9552 47.7182 27.4627 49.2375 25.3731 51.1574C23.2836 49.5575 22.0896 47.9576 20.2985 46.6865C18.5075 47.9576 17.0149 49.4378 14.9254 51.1574C13.4328 49.2375 12.2388 47.7182 11.0448 45.9986C9.45274 47.0304 5.49254 48.75 0 47.3743C1.69154 46.9157 5.43284 44.4166 6.86567 38.0886C5.57214 38.0886 2.98507 37.8822 2.98507 37.0568C4.77612 35.5665 8.59701 31.7605 9.55224 28.459H5.07463C7.26368 27.4272 11.9403 22.6124 13.7313 18.1415H9.16211C9.08828 18.1522 9.01933 18.152 8.95522 18.1415H9.16211Z" fill="#40611F"/>
<path id="Vector 45" d="M11.9403 37.0138C10.7462 37.716 7.22384 38.7592 2.68652 37.3148C5.05609 35.1171 9.62864 30.2253 9.8507 27.4773V27.0833V26.4814C9.95021 26.3811 13.1343 26.2407 25.0746 26.4814C26.1691 26.4814 28.597 26.662 29.5522 28.5879C30.6467 29.3904 33.9701 32.6203 38.5074 37.9166C36.8159 38.2175 32.6567 38.5185 29.5522 37.3148C29.4527 38.1172 29.5522 40.0231 30.7462 41.2268C29.6517 41.3271 26.5671 40.5046 22.985 36.412C22.985 37.1142 22.7462 39 21.791 40.9259C20.597 40.9259 18.0298 40.324 17.3134 37.9166C16.0199 38.8194 12.4179 40.625 8.35817 40.625C9.05468 40.5246 10.7462 39.662 11.9403 37.0138Z" fill="#53782E"/>
<path id="Vector 43" d="M4.77612 28.5879C6.96518 27.5562 11.9403 22.5264 13.7313 18.0555H27.7612C27.8607 19.3166 29.9701 23.3604 35.2239 28.5879C34.6269 28.5879 33.6716 28.8889 29.8507 28.8889C28.9552 28.8889 27.0448 28.4332 25.3731 27.2983C25.2736 27.7712 25.3731 28.9749 26.5672 30.0066C25.7711 30.0066 23.2239 29.3446 19.403 26.6964C18.521 27.3597 15.9596 28.9266 12.6884 29.9594C12.6345 29.9818 12.5837 29.9972 12.5373 30.0066C12.5878 29.991 12.6382 29.9753 12.6884 29.9594C13.2119 29.7425 14.0298 28.8792 14.0298 26.6964C13.4328 27.0977 11.7612 28.2096 9.85075 28.5879H4.77612Z" fill="#6C9840"/>
<path id="Vector 42" d="M8.65662 18.0556C10.1492 17.7546 13.7312 14.2617 20.4178 0C29.3332 15.763 27.4228 13.1667 32.8357 18.7963C32.45 18.8975 30.4477 18.7963 28.0596 18.3565C28.6566 19.5602 28.9551 20.162 29.8506 21.3657C28.7543 21.2563 22.985 20.463 20.3168 18.7963C19.4029 19.5602 15.7099 21.0648 10.4477 21.0648C11.3432 20.7407 12.8357 19.5602 13.4327 18.3565C11.3432 18.3565 10.7462 18.3565 8.65662 18.0556Z" fill="#83B054"/>
</g>
</svg>
