<svg width="48" height="65" viewBox="0 0 48 65" fill="none" xmlns="http://www.w3.org/2000/svg">
<g id="Tree5">
<path id="Vector 26" d="M28.4642 40.9258H20.0716C20.9508 43.8404 22.8433 57.7913 14.4578 62.325H21.6867L24.2891 64.9999L26.6023 62.325H33.5421C30.6505 60.8006 25.2031 55.7902 28.4642 40.9258Z" fill="#53482E"/>
<path id="Vector 25" d="M9.71491 9.99736C7.15602 10.3775 2.16985 13.099 2.69625 20.9443C0.356694 23.453 -2.61162 29.7019 4.23158 34.628C6.05935 38.0489 11.645 44.1154 19.3656 41.0137C21.9244 43.2183 28.095 46.3048 32.3062 41.0137C35.7424 41.6219 42.8781 39.9646 43.9309 28.4703C47.0015 25.4295 51.3005 17.7058 43.9309 11.1377C43.4191 9.00909 41.1673 4.75194 36.2542 4.75194C35.5231 2.69938 32.3501 -0.584707 25.5069 2.69939C23.1673 0.266731 17.3477 -2.72848 12.7856 4.75194C12.7856 4.75194 9.71491 6.34838 9.71491 9.99736Z" fill="#519550"/>
<path id="Vector 30" d="M43.8777 11.2183C43.3593 9.13601 41.0781 4.97145 36.1009 4.97145C31.2323 3.67192 22.01 10.705 29.835 16.51C27.2267 17.9055 23.3515 22.1919 28.7171 28.174C31.5117 30.9842 38.4563 34.9183 43.8777 28.174C46.9885 25.1993 51.3435 17.6436 43.8777 11.2183Z" fill="#56884E"/>
<path id="Vector 28" d="M3.46985 33.7035C5.26614 37.0562 11.3339 44.33 18.9214 41.2902C21.4337 41.2902 25.7533 39.6819 22.9338 33.2487C26.4582 34.6467 32.9649 34.8145 30.796 24.3012C28.9886 20.2039 23.6387 14.7473 16.6983 25.6992C12.4816 23.3691 3.46985 20.6453 3.46985 33.7035Z" fill="#2F814F"/>
<path id="Vector 29" d="M32.6283 41.5886C35.9755 42.2023 42.9263 40.5299 43.9518 28.9304C43.9518 23.5198 34.1573 19.9954 29.6429 28.9304C24.6269 27.4147 12.891 30.9312 19.6626 41.2266C22.1552 43.4513 28.5263 46.928 32.6283 41.5886Z" fill="#297748"/>
<path id="Vector 31" d="M15.1542 20.353C19.8065 23.3233 29.1111 26.8134 29.1111 17.0115C31.2584 15.8048 34.5261 12.1105 30.419 6.98676C28.1868 4.20213 20.7001 3.36673 19.6538 8.936C17.1513 8.65753 12.748 10.5511 15.1542 20.353Z" fill="#598E46"/>
<path id="Vector 27" d="M9.58614 9.62952C7.06117 10.0143 2.14109 12.7697 2.66051 20.7124C0.351966 23.2522 -2.577 29.5787 4.17549 34.566C6.32233 35.4924 11.0515 35.0925 12.7937 26.0809C15.9694 26.466 21.4498 25.0411 17.9656 16.2605C17.7841 14.0501 15.8542 9.62952 9.58614 9.62952Z" fill="#3B8D44"/>
</g>
</svg>
